ffmpeg started on 2016-12-06 at 09:40:43
Report written to "Output/x264/results/ffmpeg/sintelfast10000k.log"
Command line:
Tools/ffmpeg/ffmpeg -benchmark -y -i Input/y4m/sintel.y4m -c:v libx264 -preset fast -b:v 10000k -an Output/x264/encoded/sintelfast10000k.mkv
ffmpeg version N-82227-gdb23fde Copyright (c) 2000-2016 the FFmpeg developers
  built with gcc 5.4.0 (Ubuntu 5.4.0-6ubuntu1~16.04.2) 20160609
  configuration: --prefix=/home/jaroslav/ffmpeg_build --pkg-config-flags=--static --extra-cflags=-I/home/jaroslav/ffmpeg_build/include --extra-ldflags=-L/home/jaroslav/ffmpeg_build/lib --bindir=/home/jaroslav/bin --enable-gpl --enable-libass --enable-libfdk-aac --enable-libfreetype --enable-libmp3lame --enable-libopus --enable-libtheora --enable-libvorbis --enable-libvpx --enable-libx264 --enable-libx265 --enable-nvenc --enable-libmfx --enable-libxvid --enable-libgsm --enable-libopencore-amrnb --enable-version3 --enable-nonfree
  libavutil      55. 35.100 / 55. 35.100
  libavcodec     57. 66.101 / 57. 66.101
  libavformat    57. 57.100 / 57. 57.100
  libavdevice    57.  2.100 / 57.  2.100
  libavfilter     6. 66.100 /  6. 66.100
  libswscale      4.  3.100 /  4.  3.100
  libswresample   2.  4.100 /  2.  4.100
  libpostproc    54.  2.100 / 54.  2.100
Input #0, yuv4mpegpipe, from 'Input/y4m/sintel.y4m':
  Duration: 00:00:20.83, start: 0.000000, bitrate: 2057307 kb/s
    Stream #0:0: Video: rawvideo (I420 / 0x30323449), yuv420p(progressive), 4096x1744, SAR 1:1 DAR 256:109, 24 fps, 24 tbr, 24 tbn, 24 tbc
[libx264 @ 0x27751c0] using SAR=1/1
[libx264 @ 0x27751c0] using cpu capabilities: MMX2 SSE2Fast SSSE3 SSE4.2 AVX FMA3 AVX2 LZCNT BMI2
[libx264 @ 0x27751c0] profile High, level 5.1
[libx264 @ 0x27751c0] 264 - core 148 - H.264/MPEG-4 AVC codec - Copyleft 2003-2016 - http://www.videolan.org/x264.html - options: cabac=1 ref=2 deblock=1:0:0 analyse=0x3:0x113 me=hex subme=6 psy=1 psy_rd=1.00:0.00 mixed_ref=1 me_range=16 chroma_me=1 trellis=1 8x8dct=1 cqm=0 deadzone=21,11 fast_pskip=1 chroma_qp_offset=-2 threads=6 lookahead_threads=1 sliced_threads=0 nr=0 decimate=1 interlaced=0 bluray_compat=0 constrained_intra=0 bframes=3 b_pyramid=2 b_adapt=1 b_bias=0 direct=1 weightb=1 open_gop=0 weightp=1 keyint=250 keyint_min=24 scenecut=40 intra_refresh=0 rc_lookahead=30 rc=abr mbtree=1 bitrate=10000 ratetol=1.0 qcomp=0.60 qpmin=0 qpmax=69 qpstep=4 ip_ratio=1.40 aq=1:1.00
Output #0, matroska, to 'Output/x264/encoded/sintelfast10000k.mkv':
  Metadata:
    encoder         : Lavf57.57.100
    Stream #0:0: Video: h264 (libx264) (H264 / 0x34363248), yuv420p, 4096x1744 [SAR 1:1 DAR 256:109], q=-1--1, 10000 kb/s, 24 fps, 1k tbn, 24 tbc
    Metadata:
      encoder         : Lavc57.66.101 libx264
    Side data:
      cpb: bitrate max/min/avg: 0/0/10000000 buffer size: 0 vbv_delay: -1
Stream mapping:
  Stream #0:0 -> #0:0 (rawvideo (native) -> h264 (libx264))
Press [q] to stop, [?] for help
frame=   10 fps=0.0 q=0.0 size=       0kB time=00:00:00.00 bitrate=N/A speed=   0x    frame=   19 fps= 18 q=0.0 size=       0kB time=00:00:00.00 bitrate=N/A speed=   0x    frame=   28 fps= 18 q=0.0 size=       0kB time=00:00:00.00 bitrate=N/A speed=   0x    frame=   37 fps=9.9 q=0.0 size=       0kB time=00:00:00.00 bitrate=N/A speed=   0x    frame=   42 fps=9.9 q=25.0 size=       1kB time=-00:00:00.04 bitrate=N/A speed=N/A    frame=   44 fps=8.8 q=34.0 size=       1kB time=00:00:00.04 bitrate= 136.6kbits/s speed=0.00863x    frame=   45 fps=6.7 q=28.0 size=       1kB time=00:00:00.08 bitrate=  69.9kbits/s speed=0.0125x    frame=   46 fps=6.0 q=31.0 size=       1kB time=00:00:00.12 bitrate=  46.6kbits/s speed=0.0164x    frame=   47 fps=4.9 q=42.0 size=       1kB time=00:00:00.16 bitrate=  35.0kbits/s speed=0.0177x    frame=   48 fps=4.4 q=43.0 size=       1kB time=00:00:00.20 bitrate=  28.1kbits/s speed=0.019x    frame=   54 fps=4.7 q=42.0 size=       1kB time=00:00:00.45 bitrate=  12.8kbits/s speed=0.0398x    frame=   60 fps=5.0 q=42.0 size=       1kB time=00:00:00.70 bitrate=   8.3kbits/s speed=0.0587x    frame=   65 fps=5.1 q=42.0 size=       1kB time=00:00:00.91 bitrate=   6.4kbits/s speed=0.0725x    frame=   72 fps=5.4 q=41.0 size=       1kB time=00:00:01.20 bitrate=   4.9kbits/s speed=0.0912x    frame=   78 fps=5.7 q=40.0 size=       1kB time=00:00:01.45 bitrate=   4.0kbits/s speed=0.106x    frame=   84 fps=5.9 q=40.0 size=       1kB time=00:00:01.70 bitrate=   3.4kbits/s speed=0.119x    frame=   90 fps=6.1 q=39.0 size=       1kB time=00:00:01.95 bitrate=   3.0kbits/s speed=0.132x    frame=   96 fps=6.2 q=39.0 size=       1kB time=00:00:02.20 bitrate=   2.7kbits/s speed=0.144x    frame=  101 fps=6.3 q=39.0 size=       1kB time=00:00:02.41 bitrate=   2.4kbits/s speed=0.152x    frame=  105 fps=6.4 q=39.0 size=       1kB time=00:00:02.58 bitrate=   2.3kbits/s speed=0.157x    frame=  111 fps=6.5 q=38.0 size=       1kB time=00:00:02.83 bitrate=   2.1kbits/s speed=0.166x    frame=  116 fps=6.6 q=38.0 size=       1kB time=00:00:03.04 bitrate=   1.9kbits/s speed=0.173x    frame=  121 fps=6.7 q=38.0 size=       1kB time=00:00:03.25 bitrate=   1.8kbits/s speed=0.179x    frame=  127 fps=6.8 q=37.0 size=       1kB time=00:00:03.50 bitrate=   1.7kbits/s speed=0.187x    frame=  132 fps=6.8 q=35.0 size=    5154kB time=00:00:03.70 bitrate=11383.9kbits/s speed=0.192x    frame=  140 fps=7.0 q=37.0 size=    5338kB time=00:00:04.04 bitrate=10816.4kbits/s speed=0.203x    frame=  144 fps=7.0 q=37.0 size=    5338kB time=00:00:04.20 bitrate=10389.8kbits/s speed=0.205x    frame=  151 fps=7.2 q=35.0 size=    5338kB time=00:00:04.50 bitrate=9715.8kbits/s speed=0.214x    frame=  155 fps=7.2 q=36.0 size=    5338kB time=00:00:04.66 bitrate=9368.2kbits/s speed=0.216x    frame=  162 fps=7.3 q=36.0 size=    5338kB time=00:00:04.95 bitrate=8818.5kbits/s speed=0.223x    frame=  168 fps=7.4 q=36.0 size=    5338kB time=00:00:05.20 bitrate=8395.2kbits/s speed=0.228x    frame=  174 fps=7.5 q=36.0 size=    5338kB time=00:00:05.45 bitrate=8010.8kbits/s speed=0.234x    frame=  179 fps=7.5 q=36.0 size=    5338kB time=00:00:05.66 bitrate=7715.4kbits/s speed=0.238x    frame=  186 fps=7.6 q=36.0 size=    5338kB time=00:00:05.95 bitrate=7338.6kbits/s speed=0.243x    frame=  192 fps=7.7 q=34.0 size=    5338kB time=00:00:06.20 bitrate=7043.1kbits/s speed=0.248x    frame=  200 fps=7.8 q=36.0 size=    7979kB time=00:00:06.54 bitrate=9990.1kbits/s speed=0.255x    frame=  204 fps=7.8 q=36.0 size=    7979kB time=00:00:06.70 bitrate=9742.9kbits/s speed=0.256x    frame=  211 fps=7.9 q=36.0 size=    7979kB time=00:00:07.00 bitrate=9336.5kbits/s speed=0.262x    frame=  216 fps=7.9 q=35.0 size=    7979kB time=00:00:07.20 bitrate=9067.2kbits/s speed=0.265x    frame=  222 fps=8.0 q=35.0 size=    7979kB time=00:00:07.45 bitrate=8763.3kbits/s speed=0.269x    frame=  229 fps=8.1 q=35.0 size=    9061kB time=00:00:07.75 bitrate=9576.2kbits/s speed=0.273x    frame=  234 fps=8.1 q=35.0 size=    9061kB time=00:00:07.95 bitrate=9325.9kbits/s speed=0.275x    frame=  239 fps=8.1 q=35.0 size=    9061kB time=00:00:08.16 bitrate=9087.3kbits/s speed=0.278x    frame=  246 fps=8.2 q=35.0 size=    9061kB time=00:00:08.45 bitrate=8774.7kbits/s speed=0.282x    frame=  252 fps=8.2 q=35.0 size=    9061kB time=00:00:08.70 bitrate=8522.8kbits/s speed=0.284x    frame=  259 fps=8.3 q=35.0 size=    9061kB time=00:00:09.00 bitrate=8246.3kbits/s speed=0.287x    frame=  265 fps=8.3 q=35.0 size=    9061kB time=00:00:09.25 bitrate=8023.4kbits/s speed=0.29x    frame=  270 fps=8.3 q=35.0 size=    9061kB time=00:00:09.45 bitrate=7847.0kbits/s speed=0.292x    frame=  275 fps=8.4 q=35.0 size=    9061kB time=00:00:09.66 bitrate=7677.4kbits/s speed=0.294x    frame=  282 fps=8.4 q=34.0 size=    9061kB time=00:00:09.95 bitrate=7453.0kbits/s speed=0.298x    frame=  290 fps=8.5 q=34.0 size=    9061kB time=00:00:10.29 bitrate=7211.2kbits/s speed=0.302x    frame=  294 fps=8.5 q=34.0 size=    9061kB time=00:00:10.45 bitrate=7096.8kbits/s speed=0.303x    frame=  302 fps=8.5 q=34.0 size=    9061kB time=00:00:10.79 bitrate=6877.1kbits/s speed=0.305x    frame=  311 fps=8.6 q=34.0 size=   12460kB time=00:00:11.16 bitrate=9139.8kbits/s speed=0.311x    frame=  317 fps=8.7 q=34.0 size=   12460kB time=00:00:11.41 bitrate=8939.6kbits/s speed=0.312x    frame=  324 fps=8.7 q=33.0 size=   12460kB time=00:00:11.70 bitrate=8717.5kbits/s speed=0.314x    frame=  332 fps=8.8 q=33.0 size=   12460kB time=00:00:12.04 bitrate=8475.7kbits/s speed=0.319x    frame=  340 fps=8.9 q=33.0 size=   12460kB time=00:00:12.37 bitrate=8247.6kbits/s speed=0.323x    frame=  348 fps=8.9 q=33.0 size=   12460kB time=00:00:12.70 bitrate=8031.5kbits/s speed=0.327x    frame=  356 fps=9.0 q=32.0 size=   12460kB time=00:00:13.04 bitrate=7825.9kbits/s speed=0.331x    frame=  364 fps=9.1 q=32.0 size=   12460kB time=00:00:13.37 bitrate=7631.0kbits/s speed=0.335x    frame=  372 fps=9.2 q=32.0 size=   12460kB time=00:00:13.70 bitrate=7445.7kbits/s speed=0.338x    frame=  380 fps=9.3 q=32.0 size=   12460kB time=00:00:14.04 bitrate=7268.6kbits/s speed=0.342x    frame=  388 fps=9.3 q=31.0 size=   12460kB time=00:00:14.37 bitrate=7100.2kbits/s speed=0.345x    frame=  396 fps=9.4 q=31.0 size=   12460kB time=00:00:14.70 bitrate=6939.5kbits/s speed=0.348x    frame=  405 fps=9.4 q=31.0 size=   15537kB time=00:00:15.08 bitrate=8437.8kbits/s speed=0.351x    frame=  411 fps=9.4 q=30.0 size=   15537kB time=00:00:15.33 bitrate=8300.3kbits/s speed=0.352x    frame=  417 fps=9.5 q=31.0 size=   15537kB time=00:00:15.58 bitrate=8167.1kbits/s speed=0.353x    frame=  422 fps=9.5 q=30.0 size=   15537kB time=00:00:15.79 bitrate=8059.0kbits/s speed=0.354x    frame=  428 fps=9.5 q=30.0 size=   15537kB time=00:00:16.04 bitrate=7933.5kbits/s speed=0.356x    frame=  433 fps=9.5 q=30.0 size=   15537kB time=00:00:16.25 bitrate=7831.9kbits/s speed=0.356x    frame=  438 fps=9.5 q=30.0 size=   15537kB time=00:00:16.45 bitrate=7732.9kbits/s speed=0.356x    frame=  445 fps=9.5 q=31.0 size=   15537kB time=00:00:16.75 bitrate=7598.1kbits/s speed=0.358x    frame=  449 fps=9.5 q=31.0 size=   15537kB time=00:00:16.91 bitrate=7523.1kbits/s speed=0.358x    frame=  455 fps=9.5 q=31.0 size=   15537kB time=00:00:17.16 bitrate=7413.6kbits/s speed=0.359x    frame=  463 fps=9.6 q=31.0 size=   18481kB time=00:00:17.50 bitrate=8650.7kbits/s speed=0.362x    frame=  469 fps=9.6 q=31.0 size=   18481kB time=00:00:17.75 bitrate=8528.9kbits/s speed=0.363x    frame=  473 fps=9.6 q=31.0 size=   18481kB time=00:00:17.91 bitrate=8449.4kbits/s speed=0.362x    frame=  481 fps=9.6 q=31.0 size=   18481kB time=00:00:18.25 bitrate=8295.2kbits/s speed=0.365x    frame=  488 fps=9.7 q=31.0 size=   18481kB time=00:00:18.54 bitrate=8164.6kbits/s speed=0.367x    frame=  494 fps=9.7 q=31.0 size=   18481kB time=00:00:18.79 bitrate=8056.0kbits/s speed=0.368x    frame=  500 fps=9.6 q=30.0 size=   18481kB time=00:00:19.04 bitrate=7950.2kbits/s speed=0.367x    frame=  500 fps=9.2 q=-1.0 Lsize=   22519kB time=00:00:20.70 bitrate=8908.0kbits/s speed=0.382x    
video:22514kB audio:0kB subtitle:0kB other streams:0kB global headers:0kB muxing overhead: 0.021705%
bench: utime=173.560s
bench: maxrss=1331796kB
[libx264 @ 0x27751c0] frame I:8     Avg QP:25.40  size:151202
[libx264 @ 0x27751c0] frame P:269   Avg QP:30.67  size: 52870
[libx264 @ 0x27751c0] frame B:223   Avg QP:28.16  size: 34180
[libx264 @ 0x27751c0] consecutive B-frames: 37.0%  8.4%  6.6% 48.0%
[libx264 @ 0x27751c0] mb I  I16..4: 24.5% 70.5%  5.0%
[libx264 @ 0x27751c0] mb P  I16..4: 19.1% 22.5%  0.4%  P16..4: 23.8%  2.8%  0.9%  0.0%  0.0%    skip:30.4%
[libx264 @ 0x27751c0] mb B  I16..4:  6.8%  6.8%  0.5%  B16..8: 17.9%  2.4%  0.1%  direct: 9.0%  skip:56.4%  L0:42.7% L1:51.8% BI: 5.4%
[libx264 @ 0x27751c0] final ratefactor: 27.57
[libx264 @ 0x27751c0] 8x8 transform intra:53.4% inter:87.9%
[libx264 @ 0x27751c0] coded y,uvDC,uvAC intra: 17.1% 25.0% 2.0% inter: 7.2% 7.6% 0.1%
[libx264 @ 0x27751c0] i16 v,h,dc,p: 33% 30% 10% 28%
[libx264 @ 0x27751c0] i8 v,h,dc,ddl,ddr,vr,hd,vl,hu: 23% 18% 39%  3%  3%  3%  4%  3%  3%
[libx264 @ 0x27751c0] i4 v,h,dc,ddl,ddr,vr,hd,vl,hu: 18% 23% 10%  7% 10%  8% 11%  5%  7%
[libx264 @ 0x27751c0] i8c dc,h,v,p: 73% 13% 12%  2%
[libx264 @ 0x27751c0] Weighted P-Frames: Y:0.7% UV:0.0%
[libx264 @ 0x27751c0] ref P L0: 84.9% 15.1%
[libx264 @ 0x27751c0] ref B L0: 88.0% 12.0%
[libx264 @ 0x27751c0] ref B L1: 97.1%  2.9%
[libx264 @ 0x27751c0] kb/s:8852.66
